<svg xmlns="http://www.w3.org/2000/svg" width="63.601" height="59.244" viewBox="0 0 16.828 15.675"><path d="M3.137 5.14c.058-.376.292-.854.148-1.05-.143-.196-.3-.2-.477-.216-.176-.015-.63.49-.768.417-.14-.073-.202-.131-.165-.272.036-.14.559-.503.79-.536.232-.033.566-.038.753.103.187.14.268.181.34.513.07.331-.094.714-.175 1.155-.235.776-.829 1.81-1.18 2.435-.192.342-2.14 3.287-2.14 3.287L0 10.81c.583-1.31 2.882-4.385 3.137-5.67z"/><path d="M6.248 0a.417.417 0 0 0-.227.068c-.42.26-.453 1.218-.567 1.699-.113.48-.133.732 0 1.132.134.4.972.307 1.133.566.16.26 0 .284 0 .567s-.509-.29-.93-.115C4.652 4.1 4.165 3.145 3.19 2.9c-.298-.123-.598.076-.809.163-.21.376.108.872.242.97.28.201.307.16.567 0 .596-.133 1.102.132 1.698.566.388.28.34.072.623.356.284.283.314.263.682.49 1.106.634 1.04 1.651.96 1.985-.157.665-.105 1.977 0 2.831.105.855.337 1.791.595 2.246.257.455.156.517.537.585 1.017.116 3.625-2.11 4.53-2.83.906-.721.755-.756 1.132-1.133.378-.378.959-.712 1.133-1.133.174-.421.285-.737 0-1.132-.285-.395-1.132-.378-1.699-.567-.566-.188-1.038-.373-1.698-.566-.66-.192-1.56-.063-1.699-.566-.14-.504-.297-.535-.095-.815.201-.28.423-.426.7-.903.276-.477.55-.475.964-.84.413-.364.428-.554.816-.833.388-.28.796-.407.935-.74.278-.497.083-.637-.188-.69a.384.384 0 0 1-.103.032c-.297.07-.406-.017-.567.243-.16.26-.085.15-.644.667-.558.517-1.092 1.204-1.818 1.614-.725.41-1.365.334-1.699 0-.333-.333.175-.711 0-1.132-.174-.421-.744-.853-1.132-1.133C6.838.407 6.565.004 6.248 0zm6.868.342c.031-.018-.033-.017 0 0zm-6.367.875c.226.004.368.162.52.28.172.135.324.298.388.505.063.207.127.429-.04.66-.166.23-.677.442-.97.388-.293-.055-.414-.317-.544-.505-.129-.188-.293-.306-.232-.582.06-.277.489-.688.776-.738a.614.614 0 0 1 .102-.008zm.715 1.796c.064.004.123.023.15.054.004.005.004.01.008.014.132-.002.307.041.413.067.164.04.283.101.398.194.114.094.346.227.272.35-.075.121-.267-.03-.408-.078-.14-.048-.311-.174-.427-.213-.116-.04-.179-.002-.252-.049l-.09-.054a.309.309 0 0 1-.13.065h-.014c.01.06-.018.135-.03.191-.02.09-.095.11-.152.225-.056.115-.088.336-.157.476-.069.14-.098.396-.244.361-.146-.034-.075-.306-.06-.46a.993.993 0 0 1 .151-.441c.065-.106.174-.292.282-.383-.008-.008-.019-.014-.024-.025-.039-.083.045-.213.136-.264a.338.338 0 0 1 .178-.03z"/><path d="M14.09 8.142c.29.055.581.616.893.621.313.004.586.048.794-.12.209-.17.412-.392.678-.41.266-.02.372.107.373.408 0 .3-.378.304-.7.544-.324.24-.66.534-1.031.529-.37-.004-.602-.339-.851-.562-.25-.224-.904-.557-.815-.854.088-.297.37-.21.66-.156zM9.135 12.65c.087.339.55.17.842.558.285.308.348.446.163.706-.184.26-.59.74-.593 1.058-.004.316.241.723.598.702.356-.021.361-.936.622-1.337.261-.4.43-.766.398-1.205-.031-.438-.498-.547-.782-.827-.284-.28.104-.298-.241-.172-.346.127-1.093.179-1.007.517z"/></svg>